<?xml version="1.0" encoding="utf-8"?>
<!-- Generator: Adobe Illustrator 18.1.0, SVG Export Plug-In . SVG Version: 6.00 Build 0)  -->
<!DOCTYPE svg PUBLIC "-//W3C//DTD SVG 1.1//EN" "http://www.w3.org/Graphics/SVG/1.1/DTD/svg11.dtd">
<svg version="1.1" id="Layer_1" xmlns="http://www.w3.org/2000/svg" xmlns:xlink="http://www.w3.org/1999/xlink" x="0px" y="0px"
	 viewBox="0 0 400 300" enable-background="new 0 0 400 300" xml:space="preserve">
<g>
	<path fill="#00B1E5" d="M32.7,107.1H40l-16.6,55.6H16L32.7,107.1z"/>
	<path fill="#00B1E5" d="M47.7,107.1h7.3l-16.6,55.6h-7.3L47.7,107.1z"/>
</g>
<path fill="#4E4E56" d="M62.8,162.7v-37.9H81v5.7H69.3v9.8H78v5.7h-8.7v16.8H62.8z"/>
<path fill="#4E4E56" d="M85.3,162.7v-37.9h6.5V157H102v5.7H85.3z"/>
<path fill="#4E4E56" d="M111.5,162.7h-6.3l7-37.9h8.1l7,37.9H121l-1.2-8.4h-7.1L111.5,162.7z M113.6,148.6h5.3l-2.6-16.3h-0.1
	L113.6,148.6z"/>
<path fill="#4E4E56" d="M132.3,130.4H126v-5.7h19.1v5.7h-6.3v32.2h-6.5V130.4z"/>
<path fill="#4E4E56" d="M149.3,162.7v-37.9h6.5v37.9H149.3z"/>
<path fill="#4E4E56" d="M167.5,162.7h-6.5v-37.9h9.1c7.3,0,11,3.1,11,11.2c0,6.1-2.4,8.6-4.6,9.6l5.5,17.2h-6.6l-4.6-15.7
	c-0.8,0.1-2.2,0.2-3.4,0.2V162.7z M167.5,141.8h2.3c3.5,0,4.8-1.3,4.8-5.8s-1.3-5.8-4.8-5.8h-2.3V141.8z"/>
<path fill="#4E4E56" d="M185.1,133.4c0-5.4,3.2-9.7,10-9.7s10,4.4,10,9.7V153c0,5.4-3.2,9.7-10,9.7s-10-4.4-10-9.7V133.4z
	 M191.6,152.8c0,2.8,0.8,4.2,3.5,4.2s3.5-1.4,3.5-4.2v-19.2c0-2.8-0.8-4.2-3.5-4.2s-3.5,1.4-3.5,4.2V152.8z"/>
<path fill="#4E4E56" d="M209.3,162.7v-37.9h6l7.9,21.7h0.1v-21.7h5.9v37.9h-5.7l-8.3-23.7h-0.1v23.7H209.3z"/>
<g>
	<path fill="#4E4E56" d="M256.3,133.6c-0.3-3.3-2-4.2-3.5-4.2c-2.1,0-3.3,1.4-3.3,3.7c0,6.5,13.2,9.6,13.2,19.8
		c0,6.2-4.2,9.7-10.3,9.7c-6,0-9.5-4.8-9.8-10.5l6.2-0.9c0.3,3.8,1.8,5.7,3.9,5.7c2.3,0,3.8-1.2,3.8-3.5c0-7.5-13.2-9.5-13.2-20.4
		c0-6,3.7-9.5,10.1-9.5c5.3,0,8.5,3.8,9,9.2L256.3,133.6z"/>
	<path fill="#4E4E56" d="M279.6,136.9V134c0-3.2-1.5-4.6-3.2-4.6c-2.6,0-3.5,1.4-3.5,4.2v19.2c0,2.8,0.8,4.2,3.5,4.2
		c2.4,0,3.2-1.4,3.2-3.8v-4.6h6.5v4.4c0,5.4-3.2,9.7-9.7,9.7c-6.8,0-10-4.4-10-9.7v-19.5c0-5.4,3.2-9.7,10-9.7
		c6.5,0,9.7,4.7,9.7,10.4v2.8H279.6z"/>
	<path fill="#4E4E56" d="M290.6,162.7v-37.9h6.5v15.4h6.9v-15.4h6.5v37.9h-6.5v-16.8h-6.9v16.8H290.6z"/>
	<path fill="#4E4E56" d="M315.6,133.4c0-5.4,3.2-9.7,10-9.7s10,4.4,10,9.7V153c0,5.4-3.2,9.7-10,9.7s-10-4.4-10-9.7V133.4z
		 M322.1,152.8c0,2.8,0.8,4.2,3.5,4.2s3.5-1.4,3.5-4.2v-19.2c0-2.8-0.8-4.2-3.5-4.2s-3.5,1.4-3.5,4.2V152.8z"/>
	<path fill="#4E4E56" d="M340.5,133.4c0-5.4,3.2-9.7,10-9.7s10,4.4,10,9.7V153c0,5.4-3.2,9.7-10,9.7s-10-4.4-10-9.7V133.4z
		 M347,152.8c0,2.8,0.8,4.2,3.5,4.2s3.5-1.4,3.5-4.2v-19.2c0-2.8-0.8-4.2-3.5-4.2s-3.5,1.4-3.5,4.2V152.8z"/>
	<path fill="#4E4E56" d="M365.1,162.2v-37.9h6.5v32.2h10.2v5.7H365.1z"/>
</g>
</svg>
